<svg width="600" height="512" viewBox="0 0 600 512" fill="none" xmlns="http://www.w3.org/2000/svg">
<path d="M131.291 82.5534H172.058V428.855C172.058 434.289 173.132 439.669 175.219 444.689C177.306 449.708 180.364 454.269 184.22 458.111C188.076 461.953 192.654 465.001 197.692 467.08C202.73 469.159 208.13 470.23 213.583 470.23H525.265V470.626C525.265 476.059 524.191 481.439 522.104 486.459C520.017 491.479 516.958 496.04 513.102 499.882C509.246 503.724 504.669 506.771 499.631 508.851C494.593 510.93 489.193 512 483.74 512H131.291C125.838 512 120.438 510.93 115.4 508.851C110.362 506.771 105.784 503.724 101.928 499.882C98.072 496.04 95.0133 491.479 92.9265 486.459C90.8396 481.439 89.7655 476.059 89.7655 470.626V123.928C89.7655 118.494 90.8396 113.114 92.9265 108.094C95.0133 103.075 98.0721 98.5136 101.928 94.6716C105.784 90.8297 110.362 87.782 115.4 85.7028C120.438 83.6235 125.838 82.5534 131.291 82.5534Z" fill="#F2F2F2"/>
<path d="M181.737 47.0287H582.764C592.283 47.0287 600 54.7175 600 64.2021V459.302C600 468.786 592.283 476.475 582.764 476.475H181.737C172.217 476.475 164.501 468.786 164.501 459.302V64.2021C164.501 54.7175 172.217 47.0287 181.737 47.0287Z" fill="#F2F2F2"/>
<path d="M558.474 55.5372C567.223 55.5372 575.613 58.9998 581.799 65.1633C587.985 71.3269 591.46 79.6864 591.46 88.403V435.101C591.46 443.818 587.985 452.177 581.799 458.341C575.613 464.504 567.223 467.967 558.474 467.967H333.533C244.895 467.967 173.041 396.373 173.041 308.057V88.403C173.041 79.6864 176.516 71.3269 182.702 65.1633C188.888 58.9998 197.278 55.5372 206.026 55.5372H558.474Z" fill="white"/>
<path d="M154.97 288.207C156.772 288.705 158.661 288.806 160.505 288.505C162.35 288.204 164.107 287.506 165.655 286.462C167.203 285.417 168.505 284.05 169.47 282.455C170.436 280.86 171.042 279.075 171.247 277.224L232.836 258.691L231.88 240.457L158.891 263.001C155.737 262.889 152.652 263.934 150.22 265.937C147.788 267.94 146.177 270.762 145.694 273.869C145.211 276.976 145.888 280.152 147.598 282.794C149.308 285.437 151.931 287.363 154.97 288.207V288.207Z" fill="#FFB6B6"/>
<path d="M362.33 194.149C368.566 188.963 359.434 163.263 361.896 155.813C362.044 155.362 362.184 154.91 362.316 154.456C362.595 153.495 362.533 152.467 362.14 151.547L338.991 140.698C332.96 143.153 327.402 146.634 322.567 150.986L286.806 191.681L251.28 223.65L235.692 230.574L184.036 253.53L184.572 255.069L184.576 255.073L190.254 271.503L190.254 271.512L178.896 279.402L216.082 273.82L240.675 263.713L264.356 253.982C299.32 233.016 356.846 222.149 362.33 194.149Z" fill="#000E3E"/>
<path d="M197.517 382.739C198.199 383.048 198.961 383.141 199.698 383.005C200.435 382.869 201.113 382.51 201.639 381.977C202.165 381.445 202.513 380.764 202.638 380.027C202.762 379.29 202.657 378.533 202.335 377.858C202.386 377.485 202.422 377.217 202.473 376.844C202.533 376.783 202.594 376.721 202.654 376.66C208.766 370.483 219.338 374.763 219.445 383.437C219.541 391.135 220.383 399.145 218.439 406.468C217.578 409.704 216.16 412.767 214.248 415.52C226.355 404.06 235.848 390.139 242.082 374.702C243.642 370.827 244.983 366.868 246.1 362.844C247.013 359.543 247.778 356.21 248.395 352.844C251.726 334.573 250.659 315.774 245.283 297.993C241.201 293.067 238.732 287.012 238.21 280.645C238.015 278.353 238.154 276.045 238.623 273.793C239.181 274.105 244.411 265.814 244.187 265.087C245.508 264.174 247.226 264.143 248.611 263.29C255.496 259.044 261.219 262.551 261.134 272.022C266.602 278.206 264.369 283.949 257.952 287.768C253.869 290.197 251.598 294.783 247.744 297.591C247.861 297.995 247.992 298.394 248.11 298.798C250.25 306.219 251.655 313.83 252.305 321.524C254.25 314.055 259.04 306.035 263.556 301.435C268.699 296.194 275.73 292.857 282.233 289.147C290.043 284.69 299.529 291.784 297.114 300.423C297.091 300.507 297.067 300.59 297.044 300.674C296.257 300.778 295.476 300.91 294.699 301.069C293.721 301.275 292.828 301.77 292.138 302.49C291.447 303.209 290.99 304.12 290.828 305.103C290.666 306.085 290.805 307.094 291.228 307.996C291.651 308.899 292.337 309.653 293.197 310.16L293.286 310.212C292.131 312.423 290.81 314.543 289.332 316.555C286.288 340.103 271.207 343.101 253.996 336.634C253.542 336.676 253.097 336.722 252.647 336.754C252.207 347.201 250.405 357.546 247.288 367.53C245.43 373.413 243.098 379.136 240.314 384.645L240.424 384.454C244.212 378.605 249.91 374.239 256.555 372.091C266.388 368.99 277.738 370.934 287.677 369.253C292.461 368.445 296.166 373.438 293.711 377.609C293.672 377.675 293.632 377.742 293.593 377.808C292.209 377.816 290.826 377.909 289.454 378.088C288.668 378.193 287.887 378.325 287.11 378.484C286.132 378.69 285.239 379.185 284.548 379.904C283.857 380.624 283.401 381.535 283.239 382.518C283.076 383.5 283.216 384.509 283.639 385.411C284.061 386.314 284.748 387.068 285.608 387.575L285.696 387.627C285.76 387.663 285.814 387.696 285.878 387.733C281.9 391.757 277.256 395.07 272.15 397.524C261.195 414.768 245.613 410.597 231.887 398.821L231.877 398.817C227.092 405.677 221.605 412.023 215.503 417.753L188.547 406.989C188.57 406.652 188.607 406.309 188.64 405.976C191.072 407.129 193.637 407.98 196.277 408.512C195.26 405.268 194.252 402.005 193.235 398.761C193.209 398.698 193.187 398.633 193.168 398.566C192.657 396.91 192.132 395.259 191.621 393.603L191.621 393.601C193.11 389.743 195.091 386.092 197.516 382.739L197.517 382.739Z" fill="#F2F2F2"/>
<path d="M345.682 406.375L345.991 405.99C346.881 400.288 345.682 406.375 345.682 406.375Z" fill="#2F2E41"/>
<path d="M329.892 467.886H416.251C422.961 451.267 427.618 439.381 427.618 439.381C427.618 439.381 428.749 451.023 430.362 467.886H508.436C509.167 422.063 510.19 375.013 510.527 360.071L360.669 363.397L345.764 382.231C345.713 382.545 345.662 382.892 345.598 383.284C344.995 387.111 336.881 428.189 329.892 467.886Z" fill="#2F2E41"/>
<path d="M331.202 145.6L331.216 145.573C331.692 144.692 332.459 144.002 333.386 143.618C342.868 136.288 353.249 132.947 364.9 135.232C366.808 129.478 368.587 129.478 368.587 129.478L393.857 121.163L397.492 99.041L459.755 96.9412L465.413 124.547C465.413 124.547 500.215 130.763 500.215 135.258C500.215 139.753 494.415 139.753 500.215 139.753C506.015 139.753 507.569 134.616 512.589 139.753C513.019 140.184 513.473 140.592 513.949 140.973C514.007 141.024 514.071 141.069 514.129 141.12C519.803 145.567 524.262 151.365 527.095 157.981C529.928 164.597 531.043 171.816 530.338 178.975L519.633 285.075L508.207 398.291L351.83 404.776L341.358 308.436L330.705 148.143C330.61 147.265 330.783 146.379 331.202 145.6Z" fill="#000E3E"/>
<path d="M587.904 430.125C587.011 432.363 586.11 434.003 585.201 434.814L281.923 435.456C281.014 434.645 280.113 433.005 279.22 430.767C268.613 404.179 288.623 375.346 317.339 375.292L549.769 374.852C578.447 374.798 598.497 403.572 587.904 430.125Z" fill="white"/>
<path d="M281.677 436.098L281.924 436.098L585.448 435.455L585.631 435.292C586.576 434.449 587.516 432.836 588.503 430.362C591.014 424.177 591.94 417.466 591.198 410.834C590.455 404.203 588.069 397.86 584.252 392.377C580.442 386.781 575.314 382.199 569.317 379.032C563.319 375.866 556.635 374.21 549.848 374.21H549.768L317.338 374.65C310.526 374.663 303.821 376.337 297.808 379.527C291.795 382.716 286.658 387.324 282.843 392.947C279.032 398.446 276.651 404.803 275.914 411.445C275.177 418.088 276.107 424.809 278.621 431.005C279.608 433.478 280.548 435.091 281.493 435.934L281.677 436.098ZM564.938 434.112L307.783 433.335C289.631 433.28 276.279 415.822 281.658 398.548C282.166 396.82 282.925 395.176 283.911 393.667C287.607 388.217 292.586 383.752 298.414 380.661C304.241 377.57 310.739 375.947 317.341 375.934L549.77 375.495H549.848C552.799 375.593 555.71 376.213 558.443 377.326C573.457 382.986 583.496 397.215 584.331 413.187C584.342 413.391 584.352 413.594 584.363 413.798C584.494 416.332 584.123 418.866 583.271 421.257C582.419 423.648 581.102 425.848 579.397 427.732C577.691 429.616 575.63 431.147 573.331 432.237C571.032 433.327 568.54 433.956 565.997 434.086C565.644 434.104 565.291 434.113 564.938 434.112L564.938 434.112Z" fill="#E6E6E6"/>
<path d="M222.941 203.211C226.262 189.312 225.708 175.621 220.021 162.208C219.961 161.378 219.573 160.606 218.942 160.061C218.311 159.516 217.489 159.242 216.656 159.3L185.577 161.497C184.744 161.557 183.969 161.944 183.422 162.572C182.875 163.201 182.6 164.02 182.658 164.85L185.578 205.853C185.638 206.683 186.026 207.455 186.657 208C187.288 208.545 188.11 208.819 188.943 208.761L220.022 206.564C220.855 206.504 221.63 206.117 222.177 205.489C222.724 204.86 222.999 204.041 222.941 203.211Z" fill="#F2F2F2"/>
<path d="M219.675 190.995C222.333 184.146 220.633 174.725 217.797 164.635C217.741 163.858 217.378 163.134 216.787 162.624C216.196 162.113 215.427 161.857 214.646 161.911L187.936 163.8C187.156 163.856 186.431 164.218 185.918 164.806C185.406 165.395 185.148 166.162 185.203 166.939L187.801 203.426C187.858 204.203 188.221 204.927 188.812 205.437C189.402 205.948 190.172 206.204 190.952 206.15L207.499 204.98C210.973 204.73 214.206 203.118 216.489 200.496C218.772 197.874 219.917 194.457 219.675 190.995Z" fill="white"/>
<path d="M209.782 192.783C208.966 192.643 208.15 192.503 207.335 192.364C207.71 191.48 207.927 190.537 207.975 189.578C208.362 184.446 208.4 179.266 208.606 174.123C208.601 173.935 208.541 173.753 208.434 173.598C208.327 173.443 208.177 173.322 208.003 173.25C207.828 173.178 207.637 173.158 207.451 173.192C207.265 173.226 207.093 173.313 206.956 173.442C204.907 175.133 202.858 176.824 200.809 178.515C199.85 179.307 201.225 180.663 202.176 179.877C203.647 178.664 205.118 177.45 206.588 176.236C206.453 179.606 206.318 182.975 206.183 186.344C206.119 187.962 206.316 189.925 205.652 191.445C205.561 191.651 205.442 191.842 205.299 192.015C204.396 191.861 203.492 191.706 202.589 191.551C201.94 191.44 201.114 191.981 201.4 192.736C202.022 194.38 203.855 194.899 205.426 194.265C205.565 194.203 205.699 194.132 205.827 194.051L209.268 194.64C210.485 194.849 211.008 192.993 209.782 192.783Z" fill="#6C63FF"/>
<path d="M42.4868 341.271C45.8083 327.372 45.2544 313.681 39.5668 300.268C39.5068 299.438 39.1188 298.666 38.4881 298.121C37.8573 297.576 37.0353 297.302 36.2023 297.36L5.1231 299.557C4.29024 299.617 3.51522 300.004 2.96804 300.632C2.42087 301.261 2.14621 302.08 2.20438 302.91L5.12444 343.913C5.18447 344.742 5.57243 345.515 6.20318 346.06C6.83394 346.605 7.656 346.879 8.48899 346.821L39.5682 344.623C40.401 344.564 41.176 344.177 41.7232 343.549C42.2704 342.92 42.545 342.101 42.4868 341.271Z" fill="#F2F2F2"/>
<path d="M39.2209 329.055C41.879 322.206 40.1794 312.785 37.3436 302.695C37.2874 301.917 36.9241 301.194 36.3333 300.684C35.7426 300.173 34.9727 299.917 34.1926 299.971L7.48266 301.859C6.70264 301.915 5.97673 302.277 5.46426 302.866C4.95179 303.455 4.6946 304.222 4.74905 304.999L7.3475 341.486C7.40376 342.263 7.76714 342.986 8.35788 343.497C8.94863 344.008 9.71849 344.264 10.4986 344.21L27.0449 343.04C30.5193 342.79 33.7524 341.178 36.0351 338.556C38.3177 335.934 39.4635 332.517 39.2209 329.055Z" fill="white"/>
<path d="M27.2111 322.098C27.5661 321.933 27.9021 321.73 28.2133 321.493C29.0415 320.812 29.6537 319.907 29.9757 318.887C30.2977 317.866 30.3157 316.775 30.0274 315.745C28.7742 311.157 23.2667 311.129 19.4645 311.681C18.2379 311.859 18.7594 313.716 19.9785 313.539C22.5409 313.167 26.5638 312.866 27.9407 315.655C28.255 316.31 28.3668 317.043 28.262 317.762C28.1572 318.48 27.8405 319.151 27.3521 319.69C26.7681 320.274 25.9992 320.638 25.1761 320.721C24.3788 320.376 23.5133 320.215 22.6446 320.251C21.7487 320.293 21.2495 321.591 22.1567 322.045C22.9594 322.444 23.8439 322.652 24.7408 322.653C25.4845 323.01 26.1057 323.579 26.5261 324.287C26.9466 324.995 27.1476 325.811 27.104 326.633C27.0186 327.193 26.8233 327.731 26.5292 328.217C26.2351 328.702 25.848 329.125 25.3899 329.461C24.9318 329.797 24.4117 330.04 23.8593 330.176C23.3069 330.312 22.7331 330.338 22.1706 330.253L22.1468 330.25C20.9319 330.006 20.412 331.863 21.6328 332.107C23.2705 332.415 24.9637 332.061 26.3399 331.125C27.7161 330.188 28.6627 328.746 28.9712 327.114C28.9879 327.026 29.0027 326.937 29.0156 326.848C29.0923 325.972 28.9699 325.09 28.6575 324.268C28.3451 323.446 27.8507 322.704 27.2111 322.098Z" fill="#6C63FF"/>
<path d="M77.2888 121.66C80.6103 107.76 80.0564 94.0696 74.3688 80.6566C74.3088 79.8268 73.9208 79.0545 73.2901 78.5094C72.6593 77.9642 71.8373 77.6905 71.0043 77.7485L39.9251 79.9458C39.0923 80.0056 38.3173 80.3921 37.7701 81.0206C37.2229 81.6491 36.9483 82.4681 37.0064 83.2981L39.9265 124.301C39.9865 125.131 40.3745 125.903 41.0052 126.448C41.636 126.993 42.458 127.267 43.291 127.209L74.3701 125.012C75.203 124.952 75.978 124.566 76.5252 123.937C77.0724 123.309 77.347 122.49 77.2888 121.66Z" fill="#F2F2F2"/>
<path d="M74.0229 109.443C76.681 102.594 74.9814 93.1737 72.1456 83.083C72.0894 82.3059 71.7261 81.5827 71.1354 81.0721C70.5446 80.5615 69.7748 80.3052 68.9947 80.3595L42.2848 82.2479C41.5048 82.3039 40.779 82.6659 40.2665 83.2545C39.754 83.843 39.4968 84.6101 39.5512 85.3874L42.1496 121.875C42.2059 122.652 42.5692 123.375 43.16 123.886C43.7507 124.396 44.5206 124.652 45.3008 124.598L61.847 123.428C65.3214 123.179 68.5545 121.566 70.8372 118.944C73.1198 116.323 74.2655 112.906 74.0229 109.443Z" fill="white"/>
<path d="M60.1273 91.082C57.3893 90.1353 54.3446 92.2928 54.0339 95.09C53.6817 98.2604 57.1045 100.763 60.0677 99.9016C61.2597 99.555 60.7525 97.6954 59.5537 98.044C57.3817 98.6756 55.0648 96.3389 56.3135 94.2497C56.5973 93.7454 57.0284 93.3392 57.5496 93.0852C58.0707 92.8311 58.6572 92.7412 59.2309 92.8275C59.7179 92.9619 60.1666 93.2082 60.5409 93.5466C60.9151 93.885 61.2046 94.3061 61.386 94.7761C62.4517 97.169 61.1852 99.5983 59.5066 101.337C58.5492 102.329 57.4259 103.1 56.394 104.004C55.8924 104.382 55.4757 104.86 55.1709 105.408C54.8661 105.956 54.6799 106.562 54.6243 107.186C54.6515 107.887 54.8707 108.568 55.2583 109.155C55.6459 109.741 56.1871 110.211 56.8234 110.513C58.4717 111.358 60.3468 111.089 62.1003 110.808C63.3255 110.612 62.8055 108.755 61.5863 108.951C60.0526 109.197 57.7564 109.569 56.7845 107.976C55.9523 106.611 57.667 105.413 58.6012 104.687C60.9493 102.863 63.3237 100.507 63.6763 97.4053C63.9652 94.8644 62.6691 91.9609 60.1273 91.082Z" fill="#6C63FF"/>
<path d="M529.239 278.772L513.926 285.643C521.125 291.461 532.087 299.288 542.824 302.91L559.884 291.319C566.238 266.905 562.346 241.746 554.709 220.472C550.477 208.651 544.866 197.366 537.991 186.85C538.695 179.692 537.579 172.472 534.747 165.857C531.914 159.241 527.456 153.443 521.782 148.996C521.718 148.944 521.66 148.899 521.602 148.848C515.951 153.734 511.335 159.694 508.024 166.379C504.713 173.064 502.774 180.34 502.319 187.781L501.977 193.406L501.294 204.489L499.561 232.795L520.12 264.645L529.239 278.772Z" fill="#000E3E"/>
<path d="M485.185 399.612C485.006 399.835 484.778 400.016 484.519 400.139C484.26 400.263 483.977 400.326 483.69 400.325H379.065C378.779 400.324 378.496 400.26 378.238 400.138C377.98 400.015 377.752 399.836 377.572 399.615C377.392 399.393 377.263 399.135 377.196 398.858C377.129 398.58 377.124 398.292 377.183 398.013L378.807 390.326C378.875 390.013 379.019 389.721 379.229 389.478C379.438 389.235 379.705 389.047 380.006 388.933C380.224 388.848 380.455 388.804 380.689 388.805H482.072C482.306 388.804 482.537 388.848 482.755 388.933C483.056 389.047 483.323 389.235 483.532 389.478C483.742 389.721 483.887 390.013 483.954 390.326L485.578 398.013C485.636 398.292 485.63 398.58 485.562 398.857C485.494 399.133 485.365 399.391 485.185 399.612Z" fill="#2F2E41"/>
<path d="M525.239 227.544V347.791C525.238 349.324 524.626 350.793 523.539 351.876C522.451 352.96 520.977 353.569 519.439 353.57H340.596C339.058 353.569 337.583 352.96 336.496 351.876C335.408 350.793 334.797 349.324 334.796 347.791V227.544C334.799 226.013 335.412 224.546 336.499 223.464C337.586 222.382 339.059 221.773 340.596 221.771H519.439C520.975 221.773 522.449 222.382 523.536 223.464C524.623 224.546 525.235 226.013 525.239 227.544Z" fill="#3F3D56"/>
<path d="M452.394 329.978V395.836H406.088V329.978C406.087 329.504 406.239 329.043 406.521 328.662C406.803 328.28 407.2 327.999 407.654 327.859C407.868 327.789 408.092 327.754 408.318 327.756H450.157C450.749 327.755 451.318 327.988 451.737 328.405C452.156 328.821 452.393 329.386 452.394 329.976V329.978ZM434.323 352.607C434.31 351.309 433.784 350.068 432.858 349.154C431.933 348.241 430.682 347.728 429.379 347.728C428.076 347.728 426.826 348.241 425.9 349.154C424.975 350.068 424.449 351.309 424.436 352.607V360.249C424.443 361.55 424.967 362.797 425.893 363.715C426.819 364.633 428.073 365.149 429.379 365.149C430.686 365.149 431.94 364.633 432.866 363.715C433.792 362.797 434.316 361.55 434.323 360.249V352.607Z" fill="#2F2E41"/>
<path d="M425.369 94.4758C403.113 94.4758 385.072 76.4997 385.072 54.325C385.072 32.1503 403.113 14.1742 425.369 14.1742C447.624 14.1742 465.666 32.1503 465.666 54.325C465.666 76.4997 447.624 94.4758 425.369 94.4758Z" fill="#FFB6B6"/>
<path d="M377.12 47.301C381.464 48.6449 385.653 49.4371 388.478 45.8864C391.303 42.3357 390.565 38.2757 394.767 36.5641C398.161 35.1778 402.079 35.7719 405.501 37.0592C406.111 37.2855 406.708 37.5402 407.29 37.7948C407.616 37.5118 407.943 37.2432 408.298 36.9884C410.969 35.0958 414.267 34.2959 417.512 34.7534C415.14 35.8951 413.188 37.7508 411.932 40.0582C413.097 40.6381 414.347 41.0716 415.468 41.7133C430.857 50.529 447.971 54.0794 446.575 39.3651C441.918 51.5872 445.538 55.9442 452.367 67.1055L452.637 67.7562C451.955 64.828 456.747 64.6893 460.886 65.6909C463.943 66.4307 461.964 73.5313 458.046 78.4224C466.806 65.2806 479.926 45.2158 468.581 35.1494C466.908 33.6648 465.857 31.5701 465.557 26.2091C465.379 23.0305 459.949 22.234 457.081 23.6486C456.666 18.8693 454.989 14.2843 452.222 10.359C449.454 6.43361 445.693 3.30751 441.321 1.29783C432.547 -2.59235 423.624 3.39191 414.09 4.55141C408.801 5.19476 404.789 7.31744 404.578 14.0435C404.437 18.5226 397.664 20.1263 393.234 20.9185C390.423 21.4136 387.257 21.1165 385.014 22.8848C382.415 24.936 382.387 28.5432 382.401 32.009C384.944 31.9368 387.45 32.6213 389.599 33.9753C386.968 34.0412 384.424 34.9322 382.33 36.5216C382.29 36.5464 382.252 36.5748 382.217 36.6065C381.45 42.4348 381.762 43.6655 377.12 47.301Z" fill="#2F2E41"/>
<path d="M348.057 243.076C332.311 238.2 315.454 243.473 299.622 238.973C295.98 237.98 292.538 236.369 289.446 234.211C286.809 232.218 284.332 230.023 282.04 227.644C277.277 222.95 272.105 218.022 264.95 218.076C255.527 218.148 248.292 225.122 242.012 231.28C241.124 232.15 239.756 230.789 240.645 229.918C246.416 224.259 252.651 218.29 260.866 216.6C264.551 215.786 268.397 216.105 271.897 217.514C274.933 218.888 277.707 220.778 280.094 223.098C282.624 225.41 284.957 227.926 287.521 230.201C290.198 232.628 293.282 234.567 296.631 235.931C303.889 238.81 311.851 239.158 319.571 239.074C329.261 238.969 339.183 238.311 348.571 241.218C349.755 241.585 349.25 243.445 348.057 243.076H348.057Z" fill="#3F3D56"/>
<path d="M238.559 218.297L233.719 226.799L231.377 230.912C230.96 231.644 230.533 232.369 230.127 233.106C229.878 233.559 229.335 234.376 229.854 234.805C230.31 235.027 230.823 235.107 231.325 235.034C232.178 235.036 233.032 235.017 233.885 235.008L238.686 234.959L248.606 234.859C248.857 234.868 249.095 234.973 249.269 235.153C249.443 235.333 249.54 235.573 249.54 235.823C249.54 236.072 249.443 236.312 249.269 236.492C249.095 236.672 248.857 236.777 248.606 236.786C242.847 236.844 237.085 236.965 231.325 236.96C230.32 237.056 229.315 236.782 228.499 236.19C228.099 235.794 227.835 235.282 227.743 234.728C227.651 234.174 227.736 233.605 227.986 233.102C228.554 231.867 229.207 230.673 229.941 229.529L232.049 225.826L236.89 217.325C237.023 217.113 237.235 216.962 237.478 216.903C237.722 216.844 237.979 216.881 238.196 217.007C238.412 217.133 238.571 217.338 238.639 217.579C238.707 217.82 238.678 218.077 238.559 218.297V218.297Z" fill="#3F3D56"/>
<path d="M174.582 239.129H219.071C219.314 239.13 219.556 239.083 219.781 238.991C220.007 238.899 220.212 238.764 220.384 238.593C220.557 238.422 220.695 238.218 220.789 237.994C220.883 237.771 220.931 237.53 220.932 237.288C220.933 237.045 220.886 236.804 220.793 236.58C220.7 236.355 220.564 236.151 220.392 235.979C220.221 235.807 220.016 235.671 219.792 235.577C219.567 235.484 219.326 235.436 219.082 235.435C219.078 235.435 219.074 235.435 219.071 235.435H174.582C174.338 235.434 174.097 235.481 173.871 235.573C173.646 235.665 173.441 235.8 173.268 235.971C173.095 236.142 172.958 236.346 172.864 236.57C172.77 236.793 172.721 237.034 172.721 237.276C172.72 237.519 172.767 237.76 172.86 237.984C172.952 238.209 173.088 238.413 173.26 238.585C173.432 238.757 173.636 238.893 173.861 238.987C174.086 239.08 174.327 239.129 174.571 239.129C174.574 239.129 174.578 239.129 174.582 239.129Z" fill="#E6E6E6"/>
<path d="M174.582 268.878H219.071C219.314 268.879 219.555 268.832 219.781 268.74C220.006 268.648 220.211 268.512 220.383 268.341C220.556 268.17 220.693 267.967 220.787 267.743C220.881 267.519 220.929 267.279 220.93 267.037C220.931 266.794 220.884 266.554 220.791 266.33C220.699 266.105 220.563 265.901 220.391 265.729C220.22 265.557 220.016 265.42 219.791 265.327C219.566 265.233 219.325 265.185 219.082 265.184C219.078 265.184 219.075 265.184 219.071 265.184H174.582C174.339 265.184 174.097 265.231 173.872 265.323C173.647 265.415 173.442 265.55 173.27 265.721C173.097 265.892 172.96 266.095 172.866 266.319C172.772 266.543 172.724 266.783 172.723 267.026C172.722 267.268 172.769 267.509 172.862 267.733C172.954 267.957 173.09 268.161 173.262 268.333C173.433 268.505 173.637 268.642 173.862 268.735C174.087 268.829 174.327 268.877 174.571 268.878C174.575 268.878 174.578 268.878 174.582 268.878Z" fill="#E6E6E6"/>
<path d="M130.909 254.004H219.071C219.315 254.005 219.556 253.958 219.781 253.866C220.007 253.774 220.212 253.638 220.385 253.467C220.558 253.296 220.695 253.093 220.789 252.869C220.883 252.645 220.932 252.405 220.932 252.162C220.933 251.919 220.886 251.679 220.793 251.454C220.701 251.23 220.564 251.026 220.393 250.854C220.221 250.682 220.017 250.545 219.792 250.452C219.567 250.358 219.326 250.31 219.082 250.31C219.078 250.31 219.075 250.31 219.071 250.31H130.909C130.665 250.309 130.424 250.355 130.198 250.447C129.973 250.539 129.768 250.675 129.595 250.846C129.422 251.017 129.285 251.22 129.191 251.444C129.097 251.668 129.048 251.908 129.047 252.151C129.047 252.394 129.094 252.634 129.187 252.859C129.279 253.083 129.415 253.287 129.587 253.459C129.759 253.631 129.963 253.768 130.188 253.861C130.413 253.955 130.654 254.003 130.898 254.004C130.901 254.004 130.905 254.004 130.909 254.004Z" fill="#E6E6E6"/>
<path d="M189.935 221.686C180.147 208.464 163.432 202.764 153.351 189.794C151.007 186.845 149.191 183.516 147.983 179.952C147.043 176.79 146.353 173.559 145.92 170.29C144.873 163.697 143.636 156.674 137.839 152.495C130.205 146.992 120.23 148.34 111.509 149.595C111.26 149.624 111.009 149.556 110.809 149.405C110.61 149.253 110.477 149.03 110.439 148.783C110.401 148.536 110.461 148.284 110.606 148.08C110.751 147.876 110.97 147.737 111.217 147.691C119.231 146.538 127.803 145.408 135.426 148.895C138.879 150.414 141.789 152.941 143.771 156.142C145.4 159.041 146.511 162.2 147.055 165.479C147.719 168.834 148.103 172.239 148.816 175.585C149.53 179.12 150.862 182.502 152.75 185.578C156.886 192.182 163.094 197.161 169.363 201.649C177.233 207.284 185.618 212.61 191.454 220.492C192.19 221.487 190.677 222.687 189.935 221.686L189.935 221.686Z" fill="#3F3D56"/>
<path d="M116.445 137.097L107.491 141.09L103.158 143.022C102.388 143.365 101.612 143.698 100.847 144.053C100.377 144.27 99.4538 144.607 99.6171 145.26C99.7283 145.704 100.325 146.061 100.666 146.312C101.353 146.817 102.052 147.306 102.745 147.802L106.641 150.597L114.693 156.371C114.89 156.526 115.019 156.751 115.052 156.998C115.086 157.246 115.022 157.497 114.873 157.698C114.724 157.899 114.503 158.035 114.256 158.077C114.009 158.119 113.755 158.064 113.548 157.923C108.874 154.571 104.159 151.267 99.5213 147.864C98.6547 147.348 98.0077 146.534 97.7022 145.576C97.6158 145.021 97.7067 144.453 97.962 143.952C98.2174 143.451 98.6242 143.043 99.1251 142.785C100.317 142.125 101.553 141.549 102.824 141.06L106.724 139.321L115.678 135.328C115.911 135.237 116.171 135.24 116.403 135.336C116.635 135.432 116.82 135.614 116.919 135.843C117.019 136.073 117.025 136.332 116.936 136.566C116.848 136.8 116.672 136.99 116.445 137.097L116.445 137.097Z" fill="#3F3D56"/>
<path d="M36.0194 147.303H80.5082C80.7518 147.304 80.9933 147.257 81.2187 147.165C81.4441 147.073 81.6491 146.938 81.822 146.767C81.9949 146.596 82.1322 146.393 82.2262 146.169C82.3202 145.945 82.3689 145.704 82.3696 145.462C82.3704 145.219 82.3231 144.979 82.2305 144.754C82.1379 144.529 82.0018 144.325 81.8299 144.153C81.6581 143.981 81.4539 143.845 81.229 143.751C81.0042 143.658 80.763 143.61 80.5194 143.609C80.5157 143.609 80.5119 143.609 80.5082 143.609H36.0194C35.7758 143.608 35.5344 143.655 35.3089 143.747C35.0835 143.839 34.8785 143.974 34.7056 144.145C34.5327 144.316 34.3954 144.52 34.3014 144.744C34.2075 144.968 34.1587 145.208 34.158 145.451C34.1572 145.693 34.2045 145.934 34.2971 146.158C34.3897 146.383 34.5259 146.587 34.6977 146.759C34.8695 146.931 35.0737 147.068 35.2986 147.161C35.5234 147.254 35.7646 147.303 36.0082 147.303C36.0119 147.303 36.0156 147.303 36.0194 147.303Z" fill="#6C63FF"/>
<path d="M155.778 280C145.99 293.221 129.274 298.922 119.193 311.892C116.85 314.84 115.034 318.17 113.826 321.733C112.886 324.895 112.196 328.126 111.763 331.396C110.716 337.988 109.479 345.011 103.682 349.19C96.0473 354.694 86.0723 353.345 77.3512 352.09C77.1021 352.061 76.8512 352.129 76.6515 352.281C76.4519 352.432 76.3191 352.655 76.2813 352.902C76.2434 353.149 76.3035 353.401 76.4487 353.605C76.5939 353.809 76.8129 353.949 77.0596 353.995C85.0733 355.148 93.6459 356.277 101.268 352.79C104.722 351.271 107.631 348.744 109.613 345.544C111.242 342.644 112.354 339.485 112.898 336.206C113.561 332.851 113.945 329.446 114.659 326.1C115.373 322.565 116.704 319.183 118.592 316.107C122.728 309.503 128.936 304.525 135.206 300.036C143.076 294.402 151.46 289.076 157.296 281.193C158.032 280.199 156.519 278.998 155.778 280L155.778 280Z" fill="#3F3D56"/>
<path d="M82.2873 364.588L73.3333 360.595L69.0006 358.663C68.2307 358.32 67.4546 357.988 66.6899 357.633C66.2202 357.415 65.2966 357.078 65.4598 356.426C65.571 355.982 66.1682 355.624 66.5092 355.373C67.1956 354.868 67.8948 354.38 68.5873 353.883L72.4836 351.089L80.536 345.315C80.7327 345.16 80.8614 344.935 80.8949 344.687C80.9284 344.44 80.8641 344.189 80.7156 343.988C80.5671 343.786 80.346 343.65 80.0989 343.608C79.8517 343.566 79.5979 343.622 79.3908 343.762C74.7162 347.115 70.0014 350.418 65.364 353.821C64.4974 354.337 63.8504 355.151 63.545 356.11C63.4585 356.665 63.5494 357.233 63.8048 357.734C64.0601 358.234 64.467 358.643 64.9678 358.9C66.1593 359.56 67.3953 360.136 68.6669 360.625L72.5663 362.364L81.5203 366.357C81.7538 366.448 82.0138 366.446 82.2454 366.349C82.4769 366.253 82.662 366.071 82.7615 365.842C82.8609 365.613 82.8671 365.354 82.7787 365.12C82.6902 364.886 82.5141 364.695 82.2873 364.588H82.2873Z" fill="#3F3D56"/>
<path d="M1.8619 359.851H46.3506C46.8419 359.853 47.3138 359.66 47.6626 359.315C48.0113 358.971 48.2085 358.502 48.2107 358.012C48.2129 357.523 48.0199 357.053 47.6743 356.705C47.3286 356.357 46.8584 356.16 46.3671 356.157C46.3616 356.157 46.3562 356.157 46.3506 356.157H1.8619C1.37062 356.156 0.898796 356.348 0.550056 356.693C0.201317 357.038 0.00420761 357.507 0.00202942 357.996C-0.000148773 358.486 0.192757 358.956 0.538414 359.304C0.884071 359.652 1.35418 359.848 1.84546 359.851C1.85086 359.851 1.8564 359.851 1.8619 359.851Z" fill="#6C63FF"/>
<path d="M509.021 288.057C509.863 289.72 511.058 291.181 512.523 292.339C513.987 293.496 515.687 294.323 517.504 294.762C519.321 295.201 521.212 295.241 523.046 294.88C524.88 294.519 526.613 293.766 528.126 292.671L574.461 314.641L577.566 301.702L530.379 273.995C528.341 271.595 525.49 270.022 522.367 269.576C519.243 269.13 516.064 269.841 513.431 271.574C510.799 273.308 508.896 275.943 508.083 278.981C507.27 282.019 507.604 285.248 509.021 288.057L509.021 288.057Z" fill="#FFB6B6"/>
<path d="M526.876 221.325L559.48 287.703L545.701 281.48L536.111 277.146L531.304 295.344C531.304 295.344 534.487 298.426 539.508 302.478C546.707 308.296 557.669 316.124 568.406 319.745C576.81 322.584 585.066 322.847 591.266 317.556C603.034 307.513 591.53 267.629 580.413 237.262C572.969 216.926 565.706 200.866 565.706 200.866C565.706 179.419 523.932 148.579 516.179 144.36C511.751 141.958 510.527 145.456 510.527 145.456L534.822 180.896L527.559 210.241L525.503 218.531L526.876 221.325Z" fill="#000E3E"/>
</svg>
