<svg id="Camada_1" data-name="Camada 1" xmlns="http://www.w3.org/2000/svg" viewBox="0 0 760.67 285.43"><defs><style>.cls-1{fill:#74cede;fill-rule:evenodd;}.cls-2{fill:#fff;}</style></defs><path class="cls-1" d="M20,130.78V416.21H305.42V130.78Zm91.81,207.53S83.63,298.4,83.63,275.48s28.18-66.8,28.18-66.8Zm56.66,24.77s-38.93-55.16-38.93-86.84,38.93-92.33,38.93-92.33Zm73.31,38.3s-55.58-78.75-55.58-124,55.58-131.8,55.58-131.8Z" transform="translate(-20 -130.78)"/><path class="cls-2" d="M436.72,190.63H324.61l9.11-20h93.89ZM391.47,273.5h-21.6V199.44h21.6Z" transform="translate(-20 -130.78)"/><path class="cls-2" d="M525.47,232.06H446.12V170.65h90.81l9.11,20H467.72v21.45h48.64Zm11.46,41.44H446.12V242.05h21.6v11.46H546Z" transform="translate(-20 -130.78)"/><path class="cls-2" d="M653.29,273.5H606.72a108,108,0,0,1-22.19-2.13,46.77,46.77,0,0,1-17.92-7.72Q551,251.31,550.88,228.24V215.9q.15-23.07,15.73-35.41a46.91,46.91,0,0,1,17.92-7.71,108,108,0,0,1,22.19-2.13h13.51v20H606.72q-11.91,0-18,1.91a32.72,32.72,0,0,0-9.41,4.33,15.19,15.19,0,0,0-5.06,7q-1.77,4.56-1.77,12.78v10.88q0,8.22,1.77,12.71a15.38,15.38,0,0,0,5.14,7q3.38,2.49,10.21,4.4a64.45,64.45,0,0,0,17.12,1.91h37.46ZM652.85,213l-21.6-9.11v-33.2h21.6Z" transform="translate(-20 -130.78)"/><path class="cls-2" d="M778.92,273.5H757.17V232.06h-62.3l-9.11-16.6v58H664.17V170.65h21.59v41.43h71.41V170.65h21.75Z" transform="translate(-20 -130.78)"/><path class="cls-2" d="M372.87,380.49h-45l6.66-14.62h36.44a65.27,65.27,0,0,0,13.65-1.08q7.64-1.71,7.63-7.09a5,5,0,0,0-2.15-4.51q-3.76-3-15.37-3l-17.2.1a49.86,49.86,0,0,1-14.19-1.77,23.58,23.58,0,0,1-10.64-6.93,22.6,22.6,0,0,1,0-27.09,23.22,23.22,0,0,1,10.64-6.88,44.61,44.61,0,0,1,10.05-2c3.34-.24,6.51-.37,9.52-.37h21.17v14.62q-22.24,0-26,.1-9.14.43-12.15,3.34a6,6,0,0,0,0,8.81,10.48,10.48,0,0,0,5.11,2.42,43.67,43.67,0,0,0,7.09.86c2.55.1,5,.16,7.37.16l13.22-.11a50,50,0,0,1,14.19,1.77,23.69,23.69,0,0,1,10.64,6.94,22.58,22.58,0,0,1,0,27.08,23.14,23.14,0,0,1-10.64,6.88,45.33,45.33,0,0,1-10.27,2C379.2,380.36,376,380.49,372.87,380.49Zm33.43-46.76-15.8-6.66V305.25h15.8Z" transform="translate(-20 -130.78)"/><path class="cls-2" d="M501.42,339.21h-15.8c0-4.37-.43-7.64-1.29-9.83a11.67,11.67,0,0,0-3.87-5.21,18.5,18.5,0,0,0-9.24-3.5,129.84,129.84,0,0,0-16.55-.8q-10.76,0-16.34,2.25t-7.31,7.1c-.93,2-1.4,5.34-1.4,10h-15.8a44,44,0,0,1,2.74-15.9,26.52,26.52,0,0,1,8.55-11.61,32.53,32.53,0,0,1,13.27-6.13A77.56,77.56,0,0,1,454.67,304h6.45a72.34,72.34,0,0,1,16,1.66,33.64,33.64,0,0,1,13.17,6.13,25.94,25.94,0,0,1,8.49,11.56A44.64,44.64,0,0,1,501.42,339.21Zm-46.75,42.57a77.56,77.56,0,0,1-16.29-1.61A32.53,32.53,0,0,1,425.11,374a26.52,26.52,0,0,1-8.55-11.61,44,44,0,0,1-2.74-15.91h15.8c0,4.45.43,7.74,1.29,9.89q2.8,7.2,13.12,8.6a122.6,122.6,0,0,0,16.55.86q10.74,0,16.34-2.26t7.31-7.09q1.39-3.22,1.39-10h15.8a44.66,44.66,0,0,1-2.68,15.91A25.85,25.85,0,0,1,490.25,374a32.86,32.86,0,0,1-13.17,6.08,74.92,74.92,0,0,1-16,1.61Z" transform="translate(-20 -130.78)"/><path class="cls-2" d="M546.25,381.78H545q-16.12,0-26.45-8.17-10.2-8.6-10.64-26.12V305.25h15.8v41.81a23.33,23.33,0,0,0,1.72,9.78q3.33,6.89,12,8.38a61.8,61.8,0,0,0,9.35.65v15.8Zm6.23,0h-1.29l-.54-.11v-15.8a61.24,61.24,0,0,0,9.19-.65,18.23,18.23,0,0,0,7.31-2.63,13.57,13.57,0,0,0,4.84-5.7,23,23,0,0,0,1.77-9.83V305.25h15.8v42.24q-.43,17.52-10.64,26.12Q568.6,381.77,552.48,381.78Z" transform="translate(-20 -130.78)"/><path class="cls-2" d="M682.86,380.49H663.29l-64.92-75.24h20.1l48.59,56.21V305.25h15.8Zm-68,0H598.91V311.8l15.91,18.38Z" transform="translate(-20 -130.78)"/><path class="cls-2" d="M739.82,380.49H695.54V365.87h44.28a38.8,38.8,0,0,0,12.58-1.72,28.89,28.89,0,0,0,7.47-3.6,11.29,11.29,0,0,0,3.76-4.89,24.38,24.38,0,0,0,1.24-8.82v-7.95a24.38,24.38,0,0,0-1.24-8.76,11.26,11.26,0,0,0-3.76-4.94,28.26,28.26,0,0,0-7.47-3.6,38.8,38.8,0,0,0-12.58-1.72H711.34v39.55h-15.8V305.25h44.28a78.76,78.76,0,0,1,16.29,1.56,34.46,34.46,0,0,1,13.06,5.64q11.39,9,11.5,25.9v9q-.12,16.88-11.5,25.91a34.46,34.46,0,0,1-13.06,5.64A78.76,78.76,0,0,1,739.82,380.49Z" transform="translate(-20 -130.78)"/></svg>